<?xml version="1.0" encoding="utf-8"?>
<!-- Generator: Adobe Illustrator 26.4.1, SVG Export Plug-In . SVG Version: 6.00 Build 0)  -->
<svg version="1.1" id="Layer_1" xmlns="http://www.w3.org/2000/svg" xmlns:xlink="http://www.w3.org/1999/xlink" x="0px" y="0px"
	 viewBox="0 0 119.4 125.1" style="enable-background:new 0 0 119.4 125.1;" xml:space="preserve">
<style type="text/css">
	.st0{fill:#283A7B;}
	.st1{fill:#67A644;}
	.st2{fill:#283B7B;}
	.st3{fill:#68A744;}
	.st4{fill:#293B7C;}
	.st5{fill:#69A745;}
	.st6{fill:#F8F8F3;}
</style>
<g>
	<path class="st0" d="M63.8,114.9c-22.9,3-45.4-11.2-52.8-34C5.1,62.8,8.5,46,21.3,31.8c12.7-14,28.8-19.2,47.5-15.6
		c-1.7,2.3-4,1-6.1,0.9c-21.3,1.2-36.9,11.1-44.8,31c-11.1,28,6.4,58.7,36.2,64.3c1,0.2,1.9,0.5,2.9,0.7c1.5,1,3.3,0.2,4.9,0.5
		C62.7,113.8,64,113.2,63.8,114.9z"/>
	<path class="st1" d="M106.5,62.1c-0.3-0.5-0.7-0.7-1.2-0.7c-1,0.1-1.9,0.5-2.8,0.9c-17.6,7-35.7,9.8-54.6,7.7
		c-2.7-0.3-5.6-1.6-8.4-0.5c-5.5-2.2-11.3-3.7-16.5-6.6c-1-0.3-2-0.7-2.9-1.2l0-0.1c-1.8,0.5-1.1,2-1.2,3.1
		c-0.2,5.3,0.8,10.4,2.6,15.4c1.7,2.2,4.7,1.7,6.8,3.1c33.1,10.9,70-1.7,71.3-1.7c1.9,0,3.8,0,4.9-1.9c0.2-0.6,0.5-1.2,0.7-1.8
		C107.5,72.7,106.3,67.3,106.5,62.1z"/>
	<path class="st2" d="M36.8,31.3c-0.2-2.1,1.7-2.4,2.9-3.1c16.5-9.6,32.8-9,48.7,1.5c-0.6,2.8-3,1.6-4.7,2
		c-8.3,2.5-32.7,2.9-40.3,2.1c-1.1-0.3-2.2-0.6-3.2-1.1c-1.1-0.7-2.5-0.7-3.6-1.4L36.8,31.3z"/>
	<path class="st3" d="M91.9,98.1c-16.2,14-38.9,14.7-55.9,1.9c-0.7-0.5-1.9-0.8-1.8-2.1c0.6-0.6,1.3-0.7,2.1-0.7
		c15.1,4.2,30.2,3.6,45.4,1c1.3-0.4,2.6-0.4,3.9-0.9c1.4-0.4,2.8-0.9,4.3-1c0.4,0,0.9,0.1,1.3,0.2C91.7,96.9,92.1,97.3,91.9,98.1z"
		/>
	<path class="st4" d="M100.3,81.2c-0.4,0-0.9,0.1-1.3,0.3c-1.6,0.8-3.3,1.1-5.1,1.3c-15.6,4.9-31.6,5.6-47.8,4.1
		c-1.4-0.1-2.8-0.4-4.1,0.2c-0.1,0-0.1,0-0.2-0.1c-4.9-2.1-10.3-2.3-15-4.8c-1.1-0.2-2.1-0.8-3.1-1.3c-0.8-0.4-1.7-0.3-1.6,1
		c2.5,5,4.9,10,9.4,13.5c2.3,1.5,5,1.7,7.5,2.5c20.4,6.4,51.7-1.6,53.2-1.6c0.6-0.1,1.2-0.4,1.8-0.7c4.1-3.2,6.2-7.9,8.8-12.1
		C104.1,80.5,102,81.1,100.3,81.2z"/>
	<path class="st5" d="M100.1,41.5c-3.2-3.7-5.7-8-10.1-10.5c-0.6-0.2-1.3-0.3-1.9,0c-3.6,1-7.2,2.3-11,2.7
		c-8.6,1.9-17.3,1.6-25.9,1.1c-1.4-0.1-2.8-0.5-4.2,0c0,0,0,0,0,0c-1.3-0.7-2.6-1.1-4-1.5c-1.1-0.3-2.2-0.6-3.2-1
		c-0.8-0.3-1.6-0.8-2.5-1c-0.2,0-0.4,0-0.5,0c-6.2,2.1-9.4,7-11.6,12.7c0,0,0.3,0.1,0.3,0.1c1.4,0.6,2.8,1.2,4.3,1.7
		c11.7,3.7,23.7,3.2,35.7,2.2c2.6-0.2,5.4-0.2,7.6-2.2c0.8-1.7-0.7-2.2-1.6-2.9c-1.4-1.1-2.8-2.1-4.3-3.1c5.7,1.8,11.5,3.2,17.3,4.1
		c2.5,0.6,5.1,0,7.5,0.8c2.6,0.5,5.1,0.4,7.7,0.1c0.5-0.1,0.9-0.3,1.3-0.6C101.8,43.1,100.8,42.4,100.1,41.5z"/>
	<path class="st0" d="M100.7,44.2c0,0,0-0.1,0-0.1c-2.4,0.8-5,0.8-7.4,1.6C81.9,49.7,70,50.8,58,51.2c-1.4,0-2.8-0.1-4.2,0.4
		c-0.1,0-0.3-0.1-0.4-0.2c-1.3-0.7-2.7-0.9-4.1-1c-8.1-0.7-15.8-2.7-23-6.5c-0.4-0.2-0.9-0.2-1.3,0c-3.7,5.3-6.2,10.8-5,17.5
		c0.2,0.4,0.4,0.7,0.8,0.9c1.2,0.4,2.5,0.8,3.6,1.5c11.8,3.2,34,12,81-2c0,0,0.3,0,0.3,0C106.5,55.3,104.4,49.5,100.7,44.2z"/>
	<g>
		<path class="st6" d="M65.6,38.2C65,38,64.2,37.9,64,38.9c3,2.1,5.5,4.8,9,6.2l0,0c0,0,0,0,0,0c-1.3,1.3-3.1,1.1-4.8,1.4
			c-14.4,2.2-28.7,1-42.8-2.4c2.2,2,5,3,7.7,4.1c6.3,2.5,13,3,19.6,4.1c2,0,3.9,0,5.9,0c14.5-0.3,28.7-2,42-8.2
			C97.8,44,75.2,42.5,65.6,38.2z M84.1,46.5l-0.3,0.1l-0.4,0c0,0,0,0,0,0c-1.5,0.7-3,1.5-4.5,0c-1.7-0.1-2.6-1.2-3.3-2.6
			c1.8-0.6,3.4,0.7,5.2,0.7c1.4,0.1,2.8,0.1,4.2,0.2c0,0,0,0,0,0c0,0,0,0,0,0c1.4,0,2.8,0,4.2,0C87.8,46.6,86,46.6,84.1,46.5z"/>
		<path class="st5" d="M84.9,44.9C84.9,44.9,84.9,44.9,84.9,44.9C84.9,44.9,84.9,44.9,84.9,44.9c-1.4-0.1-2.8-0.1-4.2-0.2
			c-1.8,0-3.3-1.3-5.2-0.7c0.6,1.4,1.6,2.5,3.3,2.6c1.5,1.4,3,0.7,4.5,0c0,0,0,0,0,0l0.4,0l0.3-0.1c1.9,0.1,3.7,0.1,5.1-1.6
			C87.8,44.9,86.4,44.9,84.9,44.9z"/>
	</g>
	<g>
		<path class="st6" d="M65.6,55c-0.7-0.3-1.6-0.4-1.9,0.7c3.4,2.4,6.3,5.5,10.3,7.2l0,0c0,0,0,0,0,0c-1.5,1.5-3.6,1.3-5.5,1.6
			c-16.5,2.5-32.9,1.1-49-2.7c2.6,2.3,5.8,3.4,8.9,4.7c7.2,2.9,15,3.4,22.5,4.7c2.3,0,4.5,0,6.8,0c16.6-0.3,32.9-2.2,48.2-9.4
			C102.5,61.6,76.6,59.8,65.6,55z M86.8,64.4l-0.4,0.2l-0.4,0c0,0,0,0,0,0c-1.7,0.8-3.5,1.7-5.2,0.1c-1.9-0.2-3-1.4-3.7-3
			c2.1-0.6,3.9,0.8,5.9,0.8c1.6,0.1,3.2,0.2,4.8,0.3c0,0,0,0,0,0c0,0,0,0,0,0c1.6,0,3.2,0,4.9,0C91.1,64.5,89,64.5,86.8,64.4z"/>
		<path class="st5" d="M87.8,62.6C87.8,62.6,87.8,62.6,87.8,62.6C87.8,62.6,87.8,62.6,87.8,62.6c-1.6-0.1-3.2-0.2-4.8-0.3
			c-2,0-3.8-1.4-5.9-0.8c0.7,1.6,1.8,2.9,3.7,3c1.8,1.7,3.5,0.8,5.2-0.1c0,0,0,0,0,0l0.4,0l0.4-0.2c2.1,0.1,4.3,0.1,5.8-1.8
			C91,62.6,89.4,62.6,87.8,62.6z"/>
	</g>
	<g>
		<path class="st6" d="M65.8,72.9c-0.7-0.3-1.6-0.4-1.9,0.7c3.4,2.4,6.3,5.5,10.3,7.2l0,0c0,0,0,0,0,0c-1.5,1.5-3.6,1.3-5.5,1.6
			c-16.5,2.5-32.9,1.1-49-2.7c2.6,2.3,5.8,3.4,8.9,4.7c7.2,2.9,15,3.4,22.5,4.7c2.3,0,4.5,0,6.8,0c16.6-0.3,32.9-2.2,48.2-9.4
			C102.7,79.6,76.7,77.8,65.8,72.9z M87,82.4l-0.4,0.2l-0.4,0c0,0,0,0,0,0c-1.7,0.8-3.5,1.7-5.2,0.1c-1.9-0.2-3-1.4-3.7-3
			c2.1-0.6,3.9,0.8,5.9,0.8c1.6,0.1,3.2,0.2,4.8,0.3c0,0,0,0,0,0c0,0,0,0,0,0c1.6,0,3.2,0,4.9,0C91.2,82.5,89.1,82.5,87,82.4z"/>
		<path class="st5" d="M87.9,80.6C87.9,80.6,87.9,80.6,87.9,80.6C87.9,80.6,87.9,80.6,87.9,80.6c-1.6-0.1-3.2-0.2-4.8-0.3
			c-2,0-3.8-1.4-5.9-0.8c0.7,1.6,1.8,2.9,3.7,3c1.8,1.7,3.5,0.8,5.2-0.1c0,0,0,0,0,0l0.4,0l0.4-0.2c2.1,0.1,4.3,0.1,5.8-1.8
			C91.1,80.6,89.5,80.6,87.9,80.6z"/>
	</g>
	<g>
		<path class="st6" d="M65.5,90.6c-0.6-0.2-1.2-0.3-1.4,0.5c2.6,1.8,4.8,4.2,7.8,5.4l0,0c0,0,0,0,0,0c-1.2,1.1-2.7,1-4.1,1.2
			c-12.5,1.9-24.8,0.8-37-2c1.9,1.7,4.3,2.6,6.7,3.5c5.4,2.2,11.3,2.6,17,3.5c1.7,0,3.4,0,5.1,0c12.5-0.3,24.8-1.7,36.3-7.1
			C93.3,95.6,73.7,94.3,65.5,90.6z M81.5,97.7l-0.3,0.1l-0.3,0c0,0,0,0,0,0c-1.3,0.6-2.6,1.3-3.9,0c-1.5-0.1-2.2-1.1-2.8-2.3
			c1.6-0.5,2.9,0.6,4.5,0.6c1.2,0.1,2.4,0.1,3.6,0.2c0,0,0,0,0,0c0,0,0,0,0,0c1.2,0,2.4,0,3.7,0C84.7,97.8,83.1,97.8,81.5,97.7z"/>
		<path class="st5" d="M82.2,96.4C82.2,96.4,82.2,96.4,82.2,96.4C82.2,96.4,82.2,96.4,82.2,96.4c-1.2-0.1-2.4-0.1-3.6-0.2
			c-1.5,0-2.9-1.1-4.5-0.6c0.6,1.2,1.4,2.2,2.8,2.3c1.3,1.2,2.6,0.6,3.9,0c0,0,0,0,0,0l0.3,0l0.3-0.1c1.6,0.1,3.2,0.1,4.4-1.3
			C84.6,96.4,83.4,96.4,82.2,96.4z"/>
	</g>
	<g>
		<path class="st6" d="M64.8,26.1c-0.5-0.2-1-0.2-1.2,0.5c2.2,1.5,4,3.5,6.6,4.6l0,0c0,0,0,0,0,0c-1,1-2.3,0.8-3.5,1
			c-10.6,1.6-21,0.7-31.3-1.7c1.6,1.5,3.7,2.2,5.7,3c4.6,1.8,9.5,2.2,14.4,3c1.4,0,2.9,0,4.3,0c10.6-0.2,21-1.4,30.7-6
			C88.3,30.4,71.7,29.2,64.8,26.1z M78.3,32.2L78,32.3l-0.3,0c0,0,0,0,0,0c-1.1,0.5-2.2,1.1-3.3,0c-1.2-0.1-1.9-0.9-2.4-1.9
			c1.3-0.4,2.5,0.5,3.8,0.5c1,0.1,2,0.1,3.1,0.2c0,0,0,0,0,0c0,0,0,0,0,0c1,0,2.1,0,3.1,0C81,32.2,79.7,32.2,78.3,32.2z"/>
		<path class="st5" d="M78.9,31C78.9,31,78.9,31,78.9,31C78.9,31,78.9,31,78.9,31c-1-0.1-2-0.1-3.1-0.2c-1.3,0-2.4-0.9-3.8-0.5
			c0.5,1,1.1,1.8,2.4,1.9c1.1,1.1,2.2,0.5,3.3,0c0,0,0,0,0,0l0.3,0l0.3-0.1c1.4,0.1,2.7,0.1,3.7-1.1C81,31,79.9,31,78.9,31z"/>
	</g>
</g>
</svg>
