<?xml version="1.0" encoding="utf-8"?>
<!-- Generator: Adobe Illustrator 26.4.1, SVG Export Plug-In . SVG Version: 6.00 Build 0)  -->
<svg version="1.1" id="Layer_1" xmlns="http://www.w3.org/2000/svg" xmlns:xlink="http://www.w3.org/1999/xlink" x="0px" y="0px"
	 viewBox="0 0 363.2 114.9" style="enable-background:new 0 0 363.2 114.9;" xml:space="preserve">
<style type="text/css">
	.st0{fill:#283A7B;}
	.st1{fill:#67A644;}
	.st2{fill:#283B7B;}
	.st3{fill:#68A744;}
	.st4{fill:#293B7C;}
	.st5{fill:#69A745;}
	.st6{fill:#F8F8F3;}
</style>
<g>
	<path class="st0" d="M61.3,107.4c-22.9,3-45.4-11.2-52.8-34C2.6,55.2,6,38.4,18.8,24.3c12.7-14,28.8-19.2,47.5-15.6
		c-1.7,2.3-4,1-6.1,0.9c-21.3,1.2-36.9,11.1-44.8,31c-11.1,28,6.4,58.7,36.2,64.3c1,0.2,1.9,0.5,2.9,0.7c1.5,1,3.3,0.2,4.9,0.5
		C60.1,106.2,61.5,105.7,61.3,107.4z"/>
	<path class="st1" d="M104,54.5c-0.3-0.5-0.7-0.7-1.2-0.7c-1,0.1-1.9,0.5-2.8,0.9c-17.6,7-35.7,9.8-54.6,7.7
		c-2.7-0.3-5.6-1.6-8.4-0.5c-5.5-2.2-11.3-3.7-16.5-6.6c-1-0.3-2-0.7-2.9-1.2l0-0.1c-1.8,0.5-1.1,2-1.2,3.1
		c-0.2,5.3,0.8,10.4,2.6,15.4c1.7,2.2,4.7,1.7,6.8,3.1c33.1,10.9,70-1.7,71.3-1.7c1.9,0,3.8,0,4.9-1.9c0.2-0.6,0.5-1.2,0.7-1.8
		C105,65.1,103.8,59.7,104,54.5z"/>
	<path class="st2" d="M34.2,23.7c-0.2-2.1,1.7-2.4,2.9-3.1c16.5-9.6,32.8-9,48.7,1.5c-0.6,2.8-3,1.6-4.7,2
		c-8.3,2.5-32.7,2.9-40.3,2.1c-1.1-0.3-2.2-0.6-3.2-1.1c-1.1-0.7-2.5-0.7-3.6-1.4L34.2,23.7z"/>
	<path class="st3" d="M89.3,90.5c-16.2,14-38.9,14.7-55.9,1.9c-0.7-0.5-1.9-0.8-1.8-2.1c0.6-0.6,1.3-0.7,2.1-0.7
		c15.1,4.2,30.2,3.6,45.4,1c1.3-0.4,2.6-0.4,3.9-0.9c1.4-0.4,2.8-0.9,4.3-1c0.4,0,0.9,0.1,1.3,0.2C89.2,89.4,89.6,89.8,89.3,90.5z"
		/>
	<path class="st4" d="M97.8,73.6c-0.4,0-0.9,0.1-1.3,0.3c-1.6,0.8-3.3,1.1-5.1,1.3c-15.6,4.9-31.6,5.6-47.8,4.1
		c-1.4-0.1-2.8-0.4-4.1,0.2c-0.1,0-0.1,0-0.2-0.1c-4.9-2.1-10.3-2.3-15-4.8c-1.1-0.2-2.1-0.8-3.1-1.3c-0.8-0.4-1.7-0.3-1.6,1
		c2.5,5,4.9,10,9.4,13.5c2.3,1.5,5,1.7,7.5,2.5c20.4,6.4,51.7-1.6,53.2-1.6c0.6-0.1,1.2-0.4,1.8-0.7c4.1-3.2,6.2-7.9,8.8-12.1
		C101.6,72.9,99.5,73.5,97.8,73.6z"/>
	<path class="st5" d="M97.5,34c-3.2-3.7-5.7-8-10.1-10.5c-0.6-0.2-1.3-0.3-1.9,0c-3.6,1-7.2,2.3-11,2.7c-8.6,1.9-17.3,1.6-25.9,1.1
		c-1.4-0.1-2.8-0.5-4.2,0c0,0,0,0,0,0c-1.3-0.7-2.6-1.1-4-1.5c-1.1-0.3-2.2-0.6-3.2-1c-0.8-0.3-1.6-0.8-2.5-1c-0.2,0-0.4,0-0.5,0
		c-6.2,2.1-9.4,7-11.6,12.7c0,0,0.3,0.1,0.3,0.1c1.4,0.6,2.8,1.2,4.3,1.7c11.7,3.7,23.7,3.2,35.7,2.2c2.6-0.2,5.4-0.2,7.6-2.2
		c0.8-1.7-0.7-2.2-1.6-2.9c-1.4-1.1-2.8-2.1-4.3-3.1c5.7,1.8,11.5,3.2,17.3,4.1c2.5,0.6,5.1,0,7.5,0.8c2.6,0.5,5.1,0.4,7.7,0.1
		c0.5-0.1,0.9-0.3,1.3-0.6C99.2,35.5,98.2,34.8,97.5,34z"/>
	<path class="st0" d="M98.2,36.6c0,0,0-0.1,0-0.1c-2.4,0.8-5,0.8-7.4,1.6c-11.4,3.9-23.3,5.1-35.3,5.5c-1.4,0-2.8-0.1-4.2,0.4
		c-0.1,0-0.3-0.1-0.4-0.2c-1.3-0.7-2.7-0.9-4.1-1c-8.1-0.7-15.8-2.7-23-6.5c-0.4-0.2-0.9-0.2-1.3,0c-3.7,5.3-6.2,10.8-5,17.5
		c0.2,0.4,0.4,0.7,0.8,0.9c1.2,0.4,2.5,0.8,3.6,1.5c11.8,3.2,34,12,81-2c0,0,0.3,0,0.3,0C104,47.7,101.9,41.9,98.2,36.6z"/>
	<g>
		<path class="st6" d="M63.1,30.7c-0.6-0.3-1.4-0.3-1.7,0.6c3,2.1,5.5,4.8,9,6.2l0,0c0,0,0,0,0,0c-1.3,1.3-3.1,1.1-4.8,1.4
			c-14.4,2.2-28.7,1-42.8-2.4c2.2,2,5,3,7.7,4.1c6.3,2.5,13,3,19.6,4.1c2,0,3.9,0,5.9,0c14.5-0.3,28.7-2,42-8.2
			C95.3,36.5,72.6,34.9,63.1,30.7z M81.6,38.9l-0.3,0.1l-0.4,0c0,0,0,0,0,0c-1.5,0.7-3,1.5-4.5,0c-1.7-0.1-2.6-1.2-3.3-2.6
			c1.8-0.6,3.4,0.7,5.2,0.7c1.4,0.1,2.8,0.1,4.2,0.2c0,0,0,0,0,0c0,0,0,0,0,0c1.4,0,2.8,0,4.2,0C85.3,39,83.5,39,81.6,38.9z"/>
		<path class="st5" d="M82.4,37.4C82.4,37.4,82.4,37.4,82.4,37.4C82.4,37.4,82.4,37.4,82.4,37.4c-1.4-0.1-2.8-0.1-4.2-0.2
			c-1.8,0-3.3-1.3-5.2-0.7c0.6,1.4,1.6,2.5,3.3,2.6c1.5,1.4,3,0.7,4.5,0c0,0,0,0,0,0l0.4,0l0.3-0.1c1.9,0.1,3.7,0.1,5.1-1.6
			C85.2,37.4,83.8,37.4,82.4,37.4z"/>
	</g>
	<g>
		<path class="st6" d="M63.1,47.4c-0.7-0.3-1.6-0.4-1.9,0.7c3.4,2.4,6.3,5.5,10.3,7.2l0,0c0,0,0,0,0,0c-1.5,1.5-3.6,1.3-5.5,1.6
			c-16.5,2.5-32.9,1.1-49-2.7c2.6,2.3,5.8,3.4,8.9,4.7c7.2,2.9,15,3.4,22.5,4.7c2.3,0,4.5,0,6.8,0c16.6-0.3,32.9-2.2,48.2-9.4
			C100,54,74,52.2,63.1,47.4z M84.3,56.8L83.9,57l-0.4,0c0,0,0,0,0,0c-1.7,0.8-3.5,1.7-5.2,0.1c-1.9-0.2-3-1.4-3.7-3
			c2.1-0.6,3.9,0.8,5.9,0.8c1.6,0.1,3.2,0.2,4.8,0.3c0,0,0,0,0,0c0,0,0,0,0,0c1.6,0,3.2,0,4.9,0C88.6,56.9,86.4,56.9,84.3,56.8z"/>
		<path class="st5" d="M85.2,55C85.2,55,85.2,55,85.2,55C85.2,55,85.2,55,85.2,55c-1.6-0.1-3.2-0.2-4.8-0.3c-2,0-3.8-1.4-5.9-0.8
			c0.7,1.6,1.8,2.9,3.7,3c1.8,1.7,3.5,0.8,5.2-0.1c0,0,0,0,0,0l0.4,0l0.4-0.2c2.1,0.1,4.3,0.1,5.8-1.8C88.5,55,86.9,55,85.2,55z"/>
	</g>
	<g>
		<path class="st6" d="M63.2,65.3c-0.7-0.3-1.6-0.4-1.9,0.7c3.4,2.4,6.3,5.5,10.3,7.2l0,0c0,0,0,0,0,0c-1.5,1.5-3.6,1.3-5.5,1.6
			c-16.5,2.5-32.9,1.1-49-2.7c2.6,2.3,5.8,3.4,8.9,4.7c7.2,2.9,15,3.4,22.5,4.7c2.3,0,4.5,0,6.8,0c16.6-0.3,32.9-2.2,48.2-9.4
			C100.1,72,74.2,70.2,63.2,65.3z M84.4,74.8L84,75l-0.4,0c0,0,0,0,0,0c-1.7,0.8-3.5,1.7-5.2,0.1c-1.9-0.2-3-1.4-3.7-3
			c2.1-0.6,3.9,0.8,5.9,0.8c1.6,0.1,3.2,0.2,4.8,0.3c0,0,0,0,0,0c0,0,0,0,0,0c1.6,0,3.2,0,4.9,0C88.7,74.9,86.6,74.9,84.4,74.8z"/>
		<path class="st5" d="M85.4,73C85.4,73,85.4,73,85.4,73C85.4,73,85.4,73,85.4,73c-1.6-0.1-3.2-0.2-4.8-0.3c-2,0-3.8-1.4-5.9-0.8
			c0.7,1.6,1.8,2.9,3.7,3c1.8,1.7,3.5,0.8,5.2-0.1c0,0,0,0,0,0l0.4,0l0.4-0.2c2.1,0.1,4.3,0.1,5.8-1.8C88.6,73,87,73,85.4,73z"/>
	</g>
	<g>
		<path class="st6" d="M63,83c-0.6-0.2-1.2-0.3-1.4,0.5c2.6,1.8,4.8,4.2,7.8,5.4l0,0c0,0,0,0,0,0c-1.2,1.1-2.7,1-4.1,1.2
			c-12.5,1.9-24.8,0.8-37-2c1.9,1.7,4.3,2.6,6.7,3.5c5.4,2.2,11.3,2.6,17,3.5c1.7,0,3.4,0,5.1,0c12.5-0.3,24.8-1.7,36.3-7.1
			C90.8,88,71.2,86.7,63,83z M78.9,90.2l-0.3,0.1l-0.3,0c0,0,0,0,0,0c-1.3,0.6-2.6,1.3-3.9,0c-1.5-0.1-2.2-1.1-2.8-2.3
			c1.6-0.5,2.9,0.6,4.5,0.6c1.2,0.1,2.4,0.1,3.6,0.2c0,0,0,0,0,0c0,0,0,0,0,0c1.2,0,2.4,0,3.7,0C82.2,90.2,80.5,90.2,78.9,90.2z"/>
		<path class="st5" d="M79.6,88.8C79.6,88.8,79.6,88.8,79.6,88.8C79.6,88.8,79.6,88.8,79.6,88.8c-1.2-0.1-2.4-0.1-3.6-0.2
			c-1.5,0-2.9-1.1-4.5-0.6c0.6,1.2,1.4,2.2,2.8,2.3c1.3,1.2,2.6,0.6,3.9,0c0,0,0,0,0,0l0.3,0l0.3-0.1c1.6,0.1,3.2,0.1,4.4-1.3
			C82.1,88.8,80.9,88.8,79.6,88.8z"/>
	</g>
	<g>
		<path class="st6" d="M62.2,18.6c-0.5-0.2-1-0.2-1.2,0.5c2.2,1.5,4,3.5,6.6,4.6l0,0c0,0,0,0,0,0c-1,1-2.3,0.8-3.5,1
			c-10.6,1.6-21,0.7-31.3-1.7c1.6,1.5,3.7,2.2,5.7,3c4.6,1.8,9.5,2.2,14.4,3c1.4,0,2.9,0,4.3,0c10.6-0.2,21-1.4,30.7-6
			C85.8,22.8,69.2,21.7,62.2,18.6z M75.8,24.6l-0.3,0.1l-0.3,0c0,0,0,0,0,0c-1.1,0.5-2.2,1.1-3.3,0c-1.2-0.1-1.9-0.9-2.4-1.9
			c1.3-0.4,2.5,0.5,3.8,0.5c1,0.1,2,0.1,3.1,0.2c0,0,0,0,0,0c0,0,0,0,0,0c1,0,2.1,0,3.1,0C78.5,24.7,77.1,24.6,75.8,24.6z"/>
		<path class="st5" d="M76.4,23.5C76.4,23.5,76.4,23.5,76.4,23.5C76.4,23.5,76.4,23.5,76.4,23.5c-1-0.1-2-0.1-3.1-0.2
			c-1.3,0-2.4-0.9-3.8-0.5c0.5,1,1.1,1.8,2.4,1.9c1.1,1.1,2.2,0.5,3.3,0c0,0,0,0,0,0l0.3,0l0.3-0.1c1.4,0.1,2.7,0.1,3.7-1.1
			C78.4,23.5,77.4,23.5,76.4,23.5z"/>
	</g>
</g>
<g>
	<path class="st0" d="M147.5,44.1h-14.6V52h13.8v10.4h-13.8v8.2h14.6v10.4h-27V33.7h27V44.1z"/>
	<path class="st0" d="M155.3,48.8h11.4v4.1c1.6-1.9,3.1-3.2,4.7-3.8c1.6-0.6,3.5-1,5.6-1c2.3,0,4.2,0.4,5.8,1.1
		c1.6,0.7,3,1.8,4.1,3.1c0.9,1.1,1.5,2.3,1.9,3.6c0.3,1.3,0.5,2.9,0.5,4.6v20.5h-11.4V64.8c0-1.6-0.1-2.9-0.3-3.9
		c-0.2-1-0.6-1.8-1.2-2.4c-0.5-0.5-1.1-0.9-1.7-1.1c-0.6-0.2-1.3-0.3-2-0.3c-1.9,0-3.4,0.6-4.4,1.7c-1,1.2-1.5,2.8-1.5,4.9v17.2
		h-11.4V48.8z"/>
	<path class="st0" d="M204.8,48.8l7.7,16.5l7.8-16.5H233l-16.8,32.3h-7.6L192,48.8H204.8z"/>
	<path class="st0" d="M236.1,36.4c0-0.9,0.2-1.7,0.5-2.5c0.3-0.8,0.8-1.5,1.4-2c0.6-0.6,1.3-1,2-1.4c0.8-0.3,1.6-0.5,2.5-0.5
		c0.9,0,1.7,0.2,2.5,0.5c0.8,0.3,1.5,0.8,2,1.4c0.6,0.6,1,1.3,1.4,2c0.3,0.8,0.5,1.6,0.5,2.5c0,0.9-0.2,1.7-0.5,2.5
		c-0.3,0.8-0.8,1.5-1.4,2c-0.6,0.6-1.3,1-2,1.4c-0.8,0.3-1.6,0.5-2.5,0.5c-0.9,0-1.7-0.2-2.5-0.5c-0.8-0.3-1.5-0.8-2-1.4
		c-0.6-0.6-1-1.3-1.4-2C236.3,38.1,236.1,37.3,236.1,36.4z M248.3,48.8v32.3h-11.4V48.8H248.3z"/>
	<path class="st0" d="M280.9,48.8h11.4v32.3h-11.4v-3.6c-2.4,3.1-5.7,4.6-9.9,4.6c-2.3,0-4.5-0.4-6.5-1.3c-2-0.9-3.7-2.1-5.2-3.6
		c-1.5-1.6-2.6-3.4-3.4-5.5c-0.8-2.1-1.2-4.4-1.2-6.9c0-2.3,0.4-4.5,1.2-6.6c0.8-2.1,1.9-3.9,3.3-5.4c1.4-1.5,3.1-2.8,5.1-3.7
		c2-0.9,4.1-1.4,6.5-1.4c4,0,7.4,1.4,10,4.2V48.8z M266.6,64.8c0,1,0.2,2,0.6,2.9c0.4,0.9,0.9,1.7,1.5,2.4c0.6,0.7,1.4,1.2,2.3,1.6
		c0.9,0.4,1.9,0.6,2.9,0.6c1,0,2-0.2,2.9-0.6c0.9-0.4,1.7-0.9,2.3-1.6c0.6-0.7,1.2-1.4,1.6-2.3s0.6-1.8,0.6-2.8c0-1-0.2-2-0.6-2.9
		c-0.4-0.9-0.9-1.7-1.6-2.4c-0.7-0.7-1.4-1.2-2.3-1.6c-0.9-0.4-1.9-0.6-2.9-0.6c-1,0-2,0.2-2.9,0.6c-0.9,0.4-1.7,0.9-2.3,1.6
		c-0.7,0.7-1.2,1.4-1.5,2.3C266.8,62.9,266.6,63.8,266.6,64.8z"/>
	<path class="st0" d="M311.5,28.9v52.2h-11.4V28.9H311.5z"/>
	<path class="st0" d="M318,64.6c0-2.4,0.5-4.6,1.4-6.7c1-2.1,2.3-3.9,4-5.4c1.7-1.5,3.8-2.7,6.1-3.6c2.4-0.9,5-1.3,7.8-1.3
		c2.8,0,5.3,0.4,7.7,1.3c2.4,0.9,4.4,2.1,6.2,3.6c1.7,1.5,3.1,3.4,4.1,5.5c1,2.1,1.4,4.5,1.4,7c0,2.6-0.5,4.9-1.5,7
		c-1,2.1-2.3,3.9-4.1,5.5c-1.7,1.5-3.8,2.7-6.2,3.6c-2.4,0.8-5,1.3-7.8,1.3c-2.8,0-5.3-0.4-7.7-1.3s-4.4-2-6.1-3.6
		c-1.7-1.6-3-3.4-4-5.6C318.5,69.7,318,67.3,318,64.6z M330,64.8c0,1.1,0.2,2.1,0.6,3c0.4,0.9,0.9,1.7,1.6,2.4
		c0.6,0.7,1.4,1.2,2.3,1.6c0.9,0.4,1.9,0.6,2.9,0.6s2-0.2,2.9-0.6c0.9-0.4,1.7-0.9,2.3-1.6c0.6-0.7,1.2-1.5,1.6-2.4
		c0.4-0.9,0.6-1.9,0.6-2.9c0-1-0.2-2-0.6-2.9c-0.4-0.9-0.9-1.7-1.6-2.4c-0.7-0.7-1.4-1.2-2.3-1.6c-0.9-0.4-1.9-0.6-2.9-0.6
		s-2,0.2-2.9,0.6c-0.9,0.4-1.7,0.9-2.3,1.6c-0.6,0.7-1.2,1.4-1.6,2.3C330.2,62.8,330,63.8,330,64.8z"/>
</g>
</svg>
