<?xml version="1.0" encoding="utf-8"?>
<!-- Generator: Adobe Illustrator 26.4.1, SVG Export Plug-In . SVG Version: 6.00 Build 0)  -->
<svg version="1.1" id="Layer_1" xmlns="http://www.w3.org/2000/svg" xmlns:xlink="http://www.w3.org/1999/xlink" x="0px" y="0px"
	 viewBox="0 0 169.9 162.1" style="enable-background:new 0 0 169.9 162.1;" xml:space="preserve">
<style type="text/css">
	.st0{fill:#283A7B;}
	.st1{fill:#67A644;}
	.st2{fill:#283B7B;}
	.st3{fill:#68A744;}
	.st4{fill:#293B7C;}
	.st5{fill:#69A745;}
	.st6{fill:#F8F8F3;}
</style>
<g>
	<path class="st0" d="M85.6,109.9c-22.9,3-45.4-11.2-52.8-34C26.9,57.8,30.3,41,43.1,26.9c12.7-14,28.8-19.2,47.5-15.6
		c-1.7,2.3-4,1-6.1,0.9c-21.3,1.2-36.9,11.1-44.8,31c-11.1,28,6.4,58.7,36.2,64.3c1,0.2,1.9,0.5,2.9,0.7c1.5,1,3.3,0.2,4.9,0.5
		C84.4,108.8,85.8,108.2,85.6,109.9z"/>
	<path class="st1" d="M128.3,57.1c-0.3-0.5-0.7-0.7-1.2-0.7c-1,0.1-1.9,0.5-2.8,0.9c-17.6,7-35.7,9.8-54.6,7.7
		c-2.7-0.3-5.6-1.6-8.4-0.5c-5.5-2.2-11.3-3.7-16.5-6.6c-1-0.3-2-0.7-2.9-1.2l0-0.1c-1.8,0.5-1.1,2-1.2,3.1
		c-0.2,5.3,0.8,10.4,2.6,15.4c1.7,2.2,4.7,1.7,6.8,3.1c33.1,10.9,70-1.7,71.3-1.7c1.9,0,3.8,0,4.9-1.9c0.2-0.6,0.5-1.2,0.7-1.8
		C129.3,67.7,128.1,62.3,128.3,57.1z"/>
	<path class="st2" d="M58.5,26.3c-0.2-2.1,1.7-2.4,2.9-3.1c16.5-9.6,32.8-9,48.7,1.5c-0.6,2.8-3,1.6-4.7,2
		c-8.3,2.5-32.7,2.9-40.3,2.1c-1.1-0.3-2.2-0.6-3.2-1.1c-1.1-0.7-2.5-0.7-3.6-1.4L58.5,26.3z"/>
	<path class="st3" d="M113.6,93.1c-16.2,14-38.9,14.7-55.9,1.9c-0.7-0.5-1.9-0.8-1.8-2.1c0.6-0.6,1.3-0.7,2.1-0.7
		c15.1,4.2,30.2,3.6,45.4,1c1.3-0.4,2.6-0.4,3.9-0.9c1.4-0.4,2.8-0.9,4.3-1c0.4,0,0.9,0.1,1.3,0.2C113.5,91.9,113.9,92.3,113.6,93.1
		z"/>
	<path class="st4" d="M122.1,76.2c-0.4,0-0.9,0.1-1.3,0.3c-1.6,0.8-3.3,1.1-5.1,1.3c-15.6,4.9-31.6,5.6-47.8,4.1
		c-1.4-0.1-2.8-0.4-4.1,0.2c-0.1,0-0.1,0-0.2-0.1c-4.9-2.1-10.3-2.3-15-4.8c-1.1-0.2-2.1-0.8-3.1-1.3c-0.8-0.4-1.7-0.3-1.6,1
		c2.5,5,4.9,10,9.4,13.5c2.3,1.5,5,1.7,7.5,2.5c20.4,6.4,51.7-1.6,53.2-1.6c0.6-0.1,1.2-0.4,1.8-0.7c4.1-3.2,6.2-7.9,8.8-12.1
		C125.9,75.5,123.8,76.1,122.1,76.2z"/>
	<path class="st5" d="M121.9,36.5c-3.2-3.7-5.7-8-10.1-10.5c-0.6-0.2-1.3-0.3-1.9,0c-3.6,1-7.2,2.3-11,2.7
		c-8.6,1.9-17.3,1.6-25.9,1.1c-1.4-0.1-2.8-0.5-4.2,0c0,0,0,0,0,0c-1.3-0.7-2.6-1.1-4-1.5c-1.1-0.3-2.2-0.6-3.2-1
		c-0.8-0.3-1.6-0.8-2.5-1c-0.2,0-0.4,0-0.5,0c-6.2,2.1-9.4,7-11.6,12.7c0,0,0.3,0.1,0.3,0.1c1.4,0.6,2.8,1.2,4.3,1.7
		c11.7,3.7,23.7,3.2,35.7,2.2c2.6-0.2,5.4-0.2,7.6-2.2c0.8-1.7-0.7-2.2-1.6-2.9c-1.4-1.1-2.8-2.1-4.3-3.1c5.7,1.8,11.5,3.2,17.3,4.1
		c2.5,0.6,5.1,0,7.5,0.8c2.6,0.5,5.1,0.4,7.7,0.1c0.5-0.1,0.9-0.3,1.3-0.6C123.6,38.1,122.5,37.4,121.9,36.5z"/>
	<path class="st0" d="M122.5,39.2c0,0,0-0.1,0-0.1c-2.4,0.8-5,0.8-7.4,1.6c-11.4,3.9-23.3,5.1-35.3,5.5c-1.4,0-2.8-0.1-4.2,0.4
		c-0.1,0-0.3-0.1-0.4-0.2c-1.3-0.7-2.7-0.9-4.1-1c-8.1-0.7-15.8-2.7-23-6.5c-0.4-0.2-0.9-0.2-1.3,0c-3.7,5.3-6.2,10.8-5,17.5
		c0.2,0.4,0.4,0.7,0.8,0.9c1.2,0.4,2.5,0.8,3.6,1.5c11.8,3.2,34,12,81-2c0,0,0.3,0,0.3,0C128.3,50.3,126.2,44.5,122.5,39.2z"/>
	<g>
		<path class="st6" d="M87.4,33.2c-0.6-0.3-1.4-0.3-1.7,0.6c3,2.1,5.5,4.8,9,6.2l0,0c0,0,0,0,0,0c-1.3,1.3-3.1,1.1-4.8,1.4
			c-14.4,2.2-28.7,1-42.8-2.4c2.2,2,5,3,7.7,4.1c6.3,2.5,13,3,19.6,4.1c2,0,3.9,0,5.9,0c14.5-0.3,28.7-2,42-8.2
			C119.6,39,96.9,37.5,87.4,33.2z M105.9,41.5l-0.3,0.1l-0.4,0c0,0,0,0,0,0c-1.5,0.7-3,1.5-4.5,0c-1.7-0.1-2.6-1.2-3.3-2.6
			c1.8-0.6,3.4,0.7,5.2,0.7c1.4,0.1,2.8,0.1,4.2,0.2c0,0,0,0,0,0c0,0,0,0,0,0c1.4,0,2.8,0,4.2,0C109.6,41.6,107.8,41.6,105.9,41.5z"
			/>
		<path class="st5" d="M106.7,39.9C106.7,39.9,106.7,39.9,106.7,39.9C106.7,39.9,106.7,39.9,106.7,39.9c-1.4-0.1-2.8-0.1-4.2-0.2
			c-1.8,0-3.3-1.3-5.2-0.7c0.6,1.4,1.6,2.5,3.3,2.6c1.5,1.4,3,0.7,4.5,0c0,0,0,0,0,0l0.4,0l0.3-0.1c1.9,0.1,3.7,0.1,5.1-1.6
			C109.5,39.9,108.1,39.9,106.7,39.9z"/>
	</g>
	<g>
		<path class="st6" d="M87.4,50c-0.7-0.3-1.6-0.4-1.9,0.7c3.4,2.4,6.3,5.5,10.3,7.2l0,0c0,0,0,0,0,0c-1.5,1.5-3.6,1.3-5.5,1.6
			c-16.5,2.5-32.9,1.1-49-2.7c2.6,2.3,5.8,3.4,8.9,4.7c7.2,2.9,15,3.4,22.5,4.7c2.3,0,4.5,0,6.8,0c16.6-0.3,32.9-2.2,48.2-9.4
			C124.3,56.6,98.3,54.8,87.4,50z M108.6,59.4l-0.4,0.2l-0.4,0c0,0,0,0,0,0c-1.7,0.8-3.5,1.7-5.2,0.1c-1.9-0.2-3-1.4-3.7-3
			c2.1-0.6,3.9,0.8,5.9,0.8c1.6,0.1,3.2,0.2,4.8,0.3c0,0,0,0,0,0c0,0,0,0,0,0c1.6,0,3.2,0,4.9,0C112.9,59.5,110.7,59.5,108.6,59.4z"
			/>
		<path class="st5" d="M109.5,57.6C109.5,57.6,109.5,57.6,109.5,57.6C109.5,57.6,109.5,57.6,109.5,57.6c-1.6-0.1-3.2-0.2-4.8-0.3
			c-2,0-3.8-1.4-5.9-0.8c0.7,1.6,1.8,2.9,3.7,3c1.8,1.7,3.5,0.8,5.2-0.1c0,0,0,0,0,0l0.4,0l0.4-0.2c2.1,0.1,4.3,0.1,5.8-1.8
			C112.8,57.6,111.2,57.6,109.5,57.6z"/>
	</g>
	<g>
		<path class="st6" d="M87.5,67.9c-0.7-0.3-1.6-0.4-1.9,0.7c3.4,2.4,6.3,5.5,10.3,7.2l0,0c0,0,0,0,0,0c-1.5,1.5-3.6,1.3-5.5,1.6
			c-16.5,2.5-32.9,1.1-49-2.7c2.6,2.3,5.8,3.4,8.9,4.7c7.2,2.9,15,3.4,22.5,4.7c2.3,0,4.5,0,6.8,0c16.6-0.3,32.9-2.2,48.2-9.4
			C124.4,74.6,98.5,72.8,87.5,67.9z M108.7,77.4l-0.4,0.2l-0.4,0c0,0,0,0,0,0c-1.7,0.8-3.5,1.7-5.2,0.1c-1.9-0.2-3-1.4-3.7-3
			c2.1-0.6,3.9,0.8,5.9,0.8c1.6,0.1,3.2,0.2,4.8,0.3c0,0,0,0,0,0c0,0,0,0,0,0c1.6,0,3.2,0,4.9,0C113,77.5,110.9,77.5,108.7,77.4z"/>
		<path class="st5" d="M109.7,75.6C109.7,75.6,109.7,75.6,109.7,75.6C109.7,75.6,109.7,75.6,109.7,75.6c-1.6-0.1-3.2-0.2-4.8-0.3
			c-2,0-3.8-1.4-5.9-0.8c0.7,1.6,1.8,2.9,3.7,3c1.8,1.7,3.5,0.8,5.2-0.1c0,0,0,0,0,0l0.4,0l0.4-0.2c2.1,0.1,4.3,0.1,5.8-1.8
			C112.9,75.6,111.3,75.6,109.7,75.6z"/>
	</g>
	<g>
		<path class="st6" d="M87.3,85.6c-0.6-0.2-1.2-0.3-1.4,0.5c2.6,1.8,4.8,4.2,7.8,5.4l0,0c0,0,0,0,0,0c-1.2,1.1-2.7,1-4.1,1.2
			c-12.5,1.9-24.8,0.8-37-2c1.9,1.7,4.3,2.6,6.7,3.5c5.4,2.2,11.3,2.6,17,3.5c1.7,0,3.4,0,5.1,0c12.5-0.3,24.8-1.7,36.3-7.1
			C115.1,90.6,95.5,89.3,87.3,85.6z M103.2,92.7l-0.3,0.1l-0.3,0c0,0,0,0,0,0c-1.3,0.6-2.6,1.3-3.9,0c-1.5-0.1-2.2-1.1-2.8-2.3
			c1.6-0.5,2.9,0.6,4.5,0.6c1.2,0.1,2.4,0.1,3.6,0.2c0,0,0,0,0,0c0,0,0,0,0,0c1.2,0,2.4,0,3.7,0C106.5,92.8,104.9,92.8,103.2,92.7z"
			/>
		<path class="st5" d="M104,91.4C104,91.4,104,91.4,104,91.4C104,91.4,103.9,91.4,104,91.4c-1.2-0.1-2.4-0.1-3.6-0.2
			c-1.5,0-2.9-1.1-4.5-0.6c0.6,1.2,1.4,2.2,2.8,2.3c1.3,1.2,2.6,0.6,3.9,0c0,0,0,0,0,0l0.3,0l0.3-0.1c1.6,0.1,3.2,0.1,4.4-1.3
			C106.4,91.4,105.2,91.4,104,91.4z"/>
	</g>
	<g>
		<path class="st6" d="M86.5,21.1c-0.5-0.2-1-0.2-1.2,0.5c2.2,1.5,4,3.5,6.6,4.6l0,0c0,0,0,0,0,0c-1,1-2.3,0.8-3.5,1
			c-10.6,1.6-21,0.7-31.3-1.7c1.6,1.5,3.7,2.2,5.7,3c4.6,1.8,9.5,2.2,14.4,3c1.4,0,2.9,0,4.3,0c10.6-0.2,21-1.4,30.7-6
			C110.1,25.4,93.5,24.2,86.5,21.1z M100.1,27.2l-0.3,0.1l-0.3,0c0,0,0,0,0,0c-1.1,0.5-2.2,1.1-3.3,0c-1.2-0.1-1.9-0.9-2.4-1.9
			c1.3-0.4,2.5,0.5,3.8,0.5c1,0.1,2,0.1,3.1,0.2c0,0,0,0,0,0c0,0,0,0,0,0c1,0,2.1,0,3.1,0C102.8,27.2,101.4,27.2,100.1,27.2z"/>
		<path class="st5" d="M100.7,26C100.7,26,100.7,26,100.7,26C100.7,26,100.7,26,100.7,26c-1-0.1-2-0.1-3.1-0.2
			c-1.3,0-2.4-0.9-3.8-0.5c0.5,1,1.1,1.8,2.4,1.9c1.1,1.1,2.2,0.5,3.3,0c0,0,0,0,0,0l0.3,0l0.3-0.1c1.4,0.1,2.7,0.1,3.7-1.1
			C102.7,26,101.7,26,100.7,26z"/>
	</g>
</g>
<g>
	<path class="st0" d="M27.5,126.6h-9.6v5.2h9v6.8h-9v5.3h9.6v6.8H9.9v-31h17.6V126.6z"/>
	<path class="st0" d="M32.6,129.7H40v2.7c1-1.2,2-2.1,3.1-2.5c1-0.4,2.3-0.6,3.7-0.6c1.5,0,2.7,0.2,3.8,0.7c1.1,0.5,2,1.2,2.7,2
		c0.6,0.7,1,1.5,1.2,2.4c0.2,0.9,0.3,1.9,0.3,3v13.4h-7.4v-10.6c0-1-0.1-1.9-0.2-2.5c-0.2-0.6-0.4-1.2-0.8-1.5
		c-0.3-0.3-0.7-0.6-1.1-0.7c-0.4-0.1-0.8-0.2-1.3-0.2c-1.3,0-2.2,0.4-2.9,1.1c-0.7,0.8-1,1.8-1,3.2v11.3h-7.4V129.7z"/>
	<path class="st0" d="M65,129.7l5,10.8l5.1-10.8h8.3l-11,21.1h-5l-10.8-21.1H65z"/>
	<path class="st0" d="M85.4,121.6c0-0.6,0.1-1.1,0.3-1.6c0.2-0.5,0.5-1,0.9-1.3c0.4-0.4,0.8-0.7,1.3-0.9c0.5-0.2,1-0.3,1.6-0.3
		c0.6,0,1.1,0.1,1.6,0.3c0.5,0.2,1,0.5,1.3,0.9c0.4,0.4,0.7,0.8,0.9,1.3c0.2,0.5,0.3,1,0.3,1.6c0,0.6-0.1,1.1-0.3,1.6
		c-0.2,0.5-0.5,1-0.9,1.3c-0.4,0.4-0.8,0.7-1.3,0.9c-0.5,0.2-1,0.3-1.6,0.3c-0.6,0-1.1-0.1-1.6-0.3c-0.5-0.2-1-0.5-1.3-0.9
		c-0.4-0.4-0.7-0.8-0.9-1.3C85.5,122.7,85.4,122.2,85.4,121.6z M93.3,129.7v21.1h-7.4v-21.1H93.3z"/>
	<path class="st0" d="M114.7,129.7h7.5v21.1h-7.5v-2.3c-1.6,2-3.7,3-6.4,3c-1.5,0-2.9-0.3-4.2-0.8c-1.3-0.6-2.4-1.3-3.4-2.4
		c-1-1-1.7-2.2-2.2-3.6c-0.5-1.4-0.8-2.9-0.8-4.5c0-1.5,0.3-2.9,0.8-4.3c0.5-1.4,1.2-2.5,2.2-3.6c0.9-1,2-1.8,3.3-2.4
		c1.3-0.6,2.7-0.9,4.3-0.9c2.6,0,4.8,0.9,6.5,2.8V129.7z M105.3,140.2c0,0.7,0.1,1.3,0.4,1.9c0.2,0.6,0.6,1.1,1,1.5
		c0.4,0.4,0.9,0.8,1.5,1c0.6,0.2,1.2,0.4,1.9,0.4c0.7,0,1.3-0.1,1.9-0.4c0.6-0.2,1.1-0.6,1.5-1c0.4-0.4,0.8-0.9,1-1.5
		c0.3-0.6,0.4-1.2,0.4-1.8c0-0.7-0.1-1.3-0.4-1.9c-0.3-0.6-0.6-1.1-1-1.5c-0.4-0.4-0.9-0.8-1.5-1c-0.6-0.2-1.2-0.4-1.9-0.4
		c-0.7,0-1.3,0.1-1.9,0.4c-0.6,0.2-1.1,0.6-1.5,1c-0.4,0.4-0.8,0.9-1,1.5C105.5,138.9,105.3,139.5,105.3,140.2z"/>
	<path class="st0" d="M134.7,116.7v34.1h-7.4v-34.1H134.7z"/>
	<path class="st0" d="M138.9,140c0-1.6,0.3-3,0.9-4.4c0.6-1.4,1.5-2.5,2.6-3.5c1.1-1,2.5-1.8,4-2.4c1.5-0.6,3.2-0.9,5.1-0.9
		c1.8,0,3.5,0.3,5,0.8c1.5,0.6,2.9,1.3,4,2.3c1.1,1,2,2.2,2.6,3.6c0.6,1.4,0.9,2.9,0.9,4.6c0,1.7-0.3,3.2-1,4.6
		c-0.6,1.4-1.5,2.6-2.6,3.6c-1.1,1-2.5,1.8-4,2.3c-1.6,0.5-3.3,0.8-5.1,0.8c-1.8,0-3.5-0.3-5-0.8s-2.9-1.3-4-2.3
		c-1.1-1-2-2.2-2.6-3.6C139.2,143.3,138.9,141.8,138.9,140z M146.8,140.1c0,0.7,0.1,1.4,0.4,2c0.3,0.6,0.6,1.1,1,1.5
		c0.4,0.4,0.9,0.8,1.5,1c0.6,0.2,1.2,0.4,1.9,0.4s1.3-0.1,1.9-0.4c0.6-0.2,1.1-0.6,1.5-1c0.4-0.4,0.8-1,1-1.5
		c0.3-0.6,0.4-1.2,0.4-1.9c0-0.7-0.1-1.3-0.4-1.9c-0.3-0.6-0.6-1.1-1-1.5c-0.4-0.4-0.9-0.8-1.5-1c-0.6-0.2-1.2-0.4-1.9-0.4
		s-1.3,0.1-1.9,0.4c-0.6,0.2-1.1,0.6-1.5,1c-0.4,0.4-0.8,0.9-1,1.5C146.9,138.9,146.8,139.5,146.8,140.1z"/>
</g>
</svg>
