<?xml version="1.0" encoding="UTF-8"?>
<svg id="Layer_1" data-name="Layer 1" xmlns="http://www.w3.org/2000/svg" viewBox="0 0 90.52 50.41">
  <defs>
    <style>
      .cls-1 {
        fill: none;
      }

      .cls-2 {
        font-family: Montserrat-Regular, Montserrat;
      }

      .cls-2, .cls-3 {
        fill: #231f20;
        font-size: 10.94px;
      }

      .cls-4 {
        fill: #f06a25;
      }

      .cls-5 {
        fill: #d5287b;
      }

      .cls-6 {
        fill: #206886;
      }

      .cls-7 {
        fill: #6cb244;
      }

      .cls-8 {
        letter-spacing: 0em;
      }

      .cls-9 {
        letter-spacing: -.03em;
      }

      .cls-3 {
        font-family: Montserrat-ExtraBold, Montserrat;
      }
    </style>
  </defs>
  <g>
    <polygon class="cls-7" points="57.84 10.94 29.91 14.01 29.91 18.84 57.84 15.77 57.84 10.94"/>
    <polygon class="cls-4" points="29.91 20.02 29.91 24.85 57.84 21.78 57.84 16.95 29.91 20.02"/>
    <polygon class="cls-5" points="29.91 30.05 57.84 26.98 57.84 22.96 29.91 26.03 29.91 30.05"/>
    <path class="cls-1" d="M40.57,1.8c-1.62,0-2.93,1.31-2.93,2.93,0,.59,.18,1.15,.48,1.61h4.89c.3-.46,.48-1.01,.48-1.61,0-1.62-1.31-2.93-2.93-2.93Z"/>
    <path class="cls-1" d="M47.26,1.8c-1.62,0-2.93,1.31-2.93,2.93,0,.59,.18,1.15,.48,1.61h4.89c.3-.46,.48-1.01,.48-1.61,0-1.62-1.31-2.93-2.93-2.93Z"/>
    <path class="cls-6" d="M50.61,6.33c.23-.49,.37-1.03,.37-1.61,0-2.06-1.67-3.72-3.72-3.72-1.47,0-2.74,.85-3.34,2.09-.61-1.24-1.87-2.09-3.34-2.09-2.06,0-3.72,1.67-3.72,3.72,0,.58,.13,1.12,.37,1.61h-7.31v6.5l27.93-3.07v-3.43h-7.22Zm-11.61,2.62c-.54,0-.97-.44-.97-.97s.44-.97,.97-.97,.97,.44,.97,.97-.44,.97-.97,.97Zm4.01-2.62h-4.89c-.3-.46-.48-1.01-.48-1.61,0-1.62,1.31-2.93,2.93-2.93s2.93,1.31,2.93,2.93c0,.59-.18,1.15-.48,1.61Zm5.71,2.62c-.54,0-.97-.44-.97-.97s.44-.97,.97-.97,.97,.44,.97,.97-.44,.97-.97,.97Zm.98-2.62h-4.89c-.3-.46-.48-1.01-.48-1.61,0-1.62,1.31-2.93,2.93-2.93s2.93,1.31,2.93,2.93c0,.59-.18,1.15-.48,1.61Z"/>
    <g>
      <path class="cls-6" d="M54.09,31.47h3.75v-3.3l-27.16,3.3h10.83c-4.73,.75-9.19,2.17-12.77,3.62,4.49-1.13,11.98-2.39,19.03-2.44,7.46-.05,15.27,2.14,16.16,2.4-.23-.07-7.16-3.06-9.84-3.58Z"/>
      <path class="cls-6" d="M63.93,35.05c.11,.03,.11,.03,0,0h0Z"/>
    </g>
  </g>
  <text class="cls-2" transform="translate(.31 48.03)"><tspan x="0" y="0">MALL</tspan></text>
  <text class="cls-3" transform="translate(31.86 48.44)"><tspan class="cls-9" x="0" y="0">C</tspan><tspan x="7.68" y="0">ONNE</tspan><tspan class="cls-8" x="41.94" y="0">C</tspan><tspan x="49.83" y="0">T</tspan></text>
</svg>