<?xml version="1.0" encoding="UTF-8"?>
<svg id="Layer_1" data-name="Layer 1" xmlns="http://www.w3.org/2000/svg" viewBox="0 0 75.76 27.72">
  <defs>
    <style>
      .cls-1 {
        fill: none;
      }

      .cls-2 {
        fill: #f06a25;
      }

      .cls-3 {
        fill: #d5287b;
      }

      .cls-4 {
        fill: #231f20;
      }

      .cls-5 {
        fill: #206886;
      }

      .cls-6 {
        fill: #6cb244;
      }
    </style>
  </defs>
  <g>
    <polygon class="cls-6" points="23.8 8.57 4.92 10.65 4.92 13.91 23.8 11.83 23.8 8.57"/>
    <polygon class="cls-2" points="4.92 14.71 4.92 17.97 23.8 15.9 23.8 12.63 4.92 14.71"/>
    <polygon class="cls-3" points="4.92 21.49 23.8 19.41 23.8 16.7 4.92 18.77 4.92 21.49"/>
    <path class="cls-1" d="M12.13,2.39c-1.09,0-1.98,.89-1.98,1.98,0,.4,.12,.77,.33,1.09h3.3c.21-.31,.33-.69,.33-1.09,0-1.09-.89-1.98-1.98-1.98Z"/>
    <path class="cls-1" d="M16.65,2.39c-1.09,0-1.98,.89-1.98,1.98,0,.4,.12,.77,.33,1.09h3.3c.21-.31,.33-.69,.33-1.09,0-1.09-.89-1.98-1.98-1.98Z"/>
    <path class="cls-5" d="M18.92,5.45c.16-.33,.25-.7,.25-1.09,0-1.39-1.13-2.52-2.52-2.52-.99,0-1.85,.58-2.26,1.41-.41-.84-1.27-1.41-2.26-1.41-1.39,0-2.52,1.13-2.52,2.52,0,.39,.09,.76,.25,1.09H4.92v4.39l18.88-2.07v-2.32h-4.88Zm-7.85,1.77c-.36,0-.66-.29-.66-.66s.29-.66,.66-.66,.66,.29,.66,.66-.29,.66-.66,.66Zm2.71-1.77h-3.3c-.21-.31-.33-.69-.33-1.09,0-1.09,.89-1.98,1.98-1.98s1.98,.89,1.98,1.98c0,.4-.12,.77-.33,1.09Zm3.86,1.77c-.36,0-.66-.29-.66-.66s.29-.66,.66-.66,.66,.29,.66,.66-.29,.66-.66,.66Zm.66-1.77h-3.3c-.21-.31-.33-.69-.33-1.09,0-1.09,.89-1.98,1.98-1.98s1.98,.89,1.98,1.98c0,.4-.12,.77-.33,1.09Z"/>
    <g>
      <path class="cls-5" d="M21.26,22.45h2.54v-2.23l-18.36,2.23h7.32c-3.2,.51-6.21,1.47-8.63,2.45,3.04-.76,8.09-1.62,12.86-1.65,5.04-.03,10.32,1.45,10.92,1.62-.15-.05-4.84-2.07-6.65-2.42Z"/>
      <path class="cls-5" d="M27.92,24.87c.08,.02,.07,.02,0,0h0Z"/>
    </g>
  </g>
  <g>
    <path class="cls-4" d="M30.61,16.96V6.41h.65l4.89,8.45h-.35l4.88-8.45h.63v10.54s-.74,0-.74,0V7.57s.2,0,.2,0l-4.62,7.98h-.38l-4.64-7.98h.23v9.38h-.75Z"/>
    <path class="cls-4" d="M43.24,16.96l4.85-10.54h.77l4.85,10.54h-.83l-4.58-10.06h.33l-4.56,10.06h-.83Zm1.78-2.97l.26-.65h6.31l.26,.65h-6.82Z"/>
    <path class="cls-4" d="M55.62,16.96V6.41h.77v9.85h6.07v.69h-6.84Z"/>
    <path class="cls-4" d="M64.43,16.96V6.41h.77v9.85h6.07v.69h-6.84Z"/>
  </g>
  <g>
    <path class="cls-4" d="M32.74,23.57c-.45,0-.87-.07-1.25-.22s-.71-.35-.99-.61c-.28-.27-.5-.58-.65-.94-.16-.36-.24-.76-.24-1.19s.08-.83,.24-1.19c.16-.36,.38-.67,.65-.94,.28-.27,.61-.47,.99-.61s.8-.22,1.25-.22c.53,0,1,.09,1.41,.28,.42,.18,.76,.45,1.04,.8l-1.02,.93c-.18-.22-.39-.38-.61-.5-.22-.11-.46-.17-.74-.17-.23,0-.45,.04-.64,.11-.19,.08-.36,.19-.5,.33-.14,.14-.25,.32-.33,.52-.08,.2-.12,.42-.12,.67s.04,.47,.12,.67c.08,.2,.19,.37,.33,.52,.14,.14,.3,.25,.5,.33,.2,.08,.41,.11,.64,.11,.27,0,.52-.06,.74-.17,.22-.11,.42-.28,.61-.5l1.02,.93c-.28,.34-.62,.6-1.04,.79-.41,.19-.88,.28-1.41,.28Z"/>
    <path class="cls-4" d="M38.48,23.57c-.46,0-.88-.07-1.26-.22-.38-.15-.72-.35-1-.62s-.5-.58-.66-.94-.24-.75-.24-1.18,.08-.82,.24-1.18,.38-.67,.66-.94,.62-.48,1-.62,.8-.22,1.26-.22,.88,.07,1.26,.22,.71,.35,1,.62,.5,.58,.66,.94c.16,.36,.24,.75,.24,1.18s-.08,.82-.24,1.18c-.16,.36-.38,.67-.66,.94-.28,.27-.61,.47-1,.62-.38,.15-.8,.22-1.26,.22Zm0-1.33c.22,0,.42-.04,.6-.11,.19-.08,.35-.19,.49-.33,.14-.14,.25-.32,.33-.52,.08-.2,.12-.42,.12-.67s-.04-.47-.12-.67-.19-.37-.33-.51c-.14-.14-.3-.25-.49-.33-.19-.08-.39-.11-.6-.11s-.42,.04-.61,.11-.35,.19-.49,.33c-.14,.14-.25,.31-.33,.51s-.12,.42-.12,.67,.04,.47,.12,.67c.08,.2,.19,.37,.33,.52,.14,.14,.3,.25,.49,.33,.19,.08,.39,.11,.61,.11Z"/>
    <path class="cls-4" d="M42.48,23.46v-5.69h1.32l3.14,3.79h-.63v-3.79h1.58v5.69h-1.32l-3.14-3.79h.63v3.79h-1.58Z"/>
    <path class="cls-4" d="M49.03,23.46v-5.69h1.32l3.14,3.79h-.63v-3.79h1.58v5.69h-1.32l-3.14-3.79h.63v3.79h-1.58Z"/>
    <path class="cls-4" d="M55.58,23.46v-5.69h4.46v1.24h-2.87v3.2h2.97v1.24h-4.57Zm1.48-2.28v-1.2h2.64v1.2h-2.64Z"/>
    <path class="cls-4" d="M63.87,23.57c-.45,0-.87-.07-1.25-.22s-.71-.35-.99-.61c-.28-.27-.5-.58-.65-.94-.16-.36-.24-.76-.24-1.19s.08-.83,.24-1.19c.16-.36,.38-.67,.65-.94,.28-.27,.61-.47,.99-.61s.8-.22,1.25-.22c.53,0,1,.09,1.41,.28,.42,.18,.76,.45,1.04,.8l-1.02,.93c-.18-.22-.39-.38-.61-.5-.22-.11-.46-.17-.74-.17-.23,0-.45,.04-.64,.11-.19,.08-.36,.19-.5,.33-.14,.14-.25,.32-.33,.52-.08,.2-.12,.42-.12,.67s.04,.47,.12,.67c.08,.2,.19,.37,.33,.52,.14,.14,.3,.25,.5,.33,.2,.08,.41,.11,.64,.11,.27,0,.52-.06,.74-.17,.22-.11,.42-.28,.61-.5l1.02,.93c-.28,.34-.62,.6-1.04,.79-.41,.19-.88,.28-1.41,.28Z"/>
    <path class="cls-4" d="M68.1,23.46v-4.41h-1.75v-1.28h5.09v1.28h-1.74v4.41h-1.61Z"/>
  </g>
</svg>